<svg xmlns="http://www.w3.org/2000/svg" width="940" height="480" viewBox="0 0 940 480"><rect x="0" y="0" width="940" height="480" fill="#0e1523"/><rect x="14" y="14" width="912" height="452" rx="16" fill="#162133" stroke="#d7b36f" stroke-opacity="0.35"/><text x="32" y="44" font-family="Segoe UI, Arial" font-size="18" fill="#f6f2e8">Calibration Curve (Overall, Hybrid)</text><line x1="120" y1="410" x2="870" y2="410" stroke="#8fa5c4" stroke-opacity="0.5"/><line x1="120" y1="92" x2="120" y2="410" stroke="#8fa5c4" stroke-opacity="0.5"/><line x1="120" y1="410" x2="870" y2="92" stroke="#d7b36f" stroke-opacity="0.6" stroke-dasharray="5 5"/><polyline points="307.66,307.50 386.96,342.48 454.44,303.23 535.52,239.28 605.83,212.98 694.82,121.24 738.60,133.48" fill="none" stroke="#57a693" stroke-width="3"/><circle cx="307.66" cy="307.50" r="6" fill="#57a693" fill-opacity="0.78"/><circle cx="386.96" cy="342.48" r="6" fill="#57a693" fill-opacity="0.78"/><circle cx="454.44" cy="303.23" r="6" fill="#57a693" fill-opacity="0.78"/><circle cx="535.52" cy="239.28" r="5" fill="#57a693" fill-opacity="0.78"/><circle cx="605.83" cy="212.98" r="5" fill="#57a693" fill-opacity="0.78"/><circle cx="694.82" cy="121.24" r="5" fill="#57a693" fill-opacity="0.78"/><circle cx="738.60" cy="133.48" r="4" fill="#57a693" fill-opacity="0.78"/><text x="870" y="80" text-anchor="end" font-family="Segoe UI, Arial" font-size="12" fill="#d7b36f">Dashed line = perfect calibration</text><text x="870" y="438" text-anchor="end" font-family="Segoe UI, Arial" font-size="12" fill="#8fa5c4">Predicted probability</text><text x="60" y="98" font-family="Segoe UI, Arial" font-size="12" fill="#8fa5c4">Observed rate</text></svg>