<svg xmlns="http://www.w3.org/2000/svg" width="940" height="480" viewBox="0 0 940 480"><rect x="0" y="0" width="940" height="480" fill="#0e1523"/><rect x="14" y="14" width="912" height="452" rx="16" fill="#162133" stroke="#d7b36f" stroke-opacity="0.35"/><text x="32" y="44" font-family="Segoe UI, Arial" font-size="18" fill="#f6f2e8">Temporal Stability (PR-AUC Std by Target)</text><line x1="120" y1="420" x2="880" y2="420" stroke="#8fa5c4" stroke-opacity="0.5"/><line x1="120" y1="90" x2="120" y2="420" stroke="#8fa5c4" stroke-opacity="0.5"/><rect x="160" y="298.5" width="96" height="121.5" rx="10" fill="#4f9deb" fill-opacity="0.88"/><text x="208.0" y="288.5" text-anchor="middle" font-family="Segoe UI, Arial" font-size="14" fill="#f6f2e8">0.0443</text><text x="208.0" y="442" text-anchor="middle" font-family="Segoe UI, Arial" font-size="12" fill="#d7b36f">overall</text><rect x="314" y="116.4" width="96" height="303.6" rx="10" fill="#e67373" fill-opacity="0.88"/><text x="362.0" y="106.4" text-anchor="middle" font-family="Segoe UI, Arial" font-size="14" fill="#f6f2e8">0.1107</text><text x="362.0" y="442" text-anchor="middle" font-family="Segoe UI, Arial" font-size="12" fill="#d7b36f">power</text><rect x="468" y="253.0" width="96" height="167.0" rx="10" fill="#e09a4a" fill-opacity="0.88"/><text x="516.0" y="243.0" text-anchor="middle" font-family="Segoe UI, Arial" font-size="14" fill="#f6f2e8">0.0609</text><text x="516.0" y="442" text-anchor="middle" font-family="Segoe UI, Arial" font-size="12" fill="#d7b36f">transformer</text><rect x="622" y="377.5" width="96" height="42.5" rx="10" fill="#57a693" fill-opacity="0.88"/><text x="670.0" y="367.5" text-anchor="middle" font-family="Segoe UI, Arial" font-size="14" fill="#f6f2e8">0.0155</text><text x="670.0" y="442" text-anchor="middle" font-family="Segoe UI, Arial" font-size="12" fill="#d7b36f">water</text><rect x="776" y="203.5" width="96" height="216.5" rx="10" fill="#9c78d4" fill-opacity="0.88"/><text x="824.0" y="193.5" text-anchor="middle" font-family="Segoe UI, Arial" font-size="14" fill="#f6f2e8">0.0790</text><text x="824.0" y="442" text-anchor="middle" font-family="Segoe UI, Arial" font-size="12" fill="#d7b36f">traffic</text><text x="876" y="94" text-anchor="end" font-family="Segoe UI, Arial" font-size="12" fill="#8fa5c4">max=0.1107</text></svg>